<svg width="1920" height="130" viewBox="0 0 1920 130" fill="none" xmlns="http://www.w3.org/2000/svg">
<path d="M3.99679e-05 129.5L1920 129.5L1920 44.6424C1916.55 44.6424 1912.71 44.0646 1909.25 44.6424C1907.91 45.0276 1905.8 46.5684 1904.26 45.798C1901.96 44.835 1903.49 43.4869 1900.23 42.9091C1895.63 42.3313 1893.9 47.1461 1890.25 47.7239C1886.22 48.3017 1885.07 45.6054 1883.34 42.7165C1880.66 38.0943 1877.01 35.9758 1871.83 38.2869C1869.33 39.4424 1868.95 36.1683 1865.3 35.9757C1863.38 35.9757 1861.53 35.9757 1859.74 35.9757C1856.09 35.9757 1853.21 36.5535 1849.95 34.6276C1845.34 32.1239 1840.35 30.3905 1838.43 25.3831C1837.86 24.035 1835.17 21.5313 1834.21 20.3758C1831.33 17.4869 1830.76 16.3313 1827.49 17.1017C1824.04 17.8721 1820.01 17.6794 1816.55 17.4868C1813.48 17.2942 1807.72 16.5239 1805.04 14.7906C1799.66 11.7091 1797.74 10.9387 1791.8 9.01278C1786.23 7.27945 1785.85 4.19801 1780.66 6.50912C1778.17 7.47208 1775.1 8.04986 1772.41 9.20541C1770.11 10.1684 1768.38 11.5165 1765.89 11.9017C1761.47 12.4795 1756.29 11.7091 1751.88 11.7091C1745.93 11.7091 1744.2 12.4795 1739.02 15.1758C1735.75 16.9091 1730.96 15.9461 1727.12 15.9461C1722.51 15.9461 1720.78 15.5609 1717.52 19.2202C1711 26.5387 1703.51 34.8202 1692.95 34.6276C1685.66 34.435 1679.14 31.7387 1672.04 31.7387C1667.81 31.7387 1663.65 31.7387 1659.56 31.7387C1654.76 31.7387 1652.08 30.0054 1647.85 28.4647C1641.71 26.1536 1639.02 28.6573 1633.46 31.161C1627.7 33.4721 1622.33 34.6276 1615.99 34.6276C1612.35 34.6276 1609.47 35.0128 1606.4 33.6647C1603.71 32.5091 1601.6 30.198 1599.1 28.6573C1591.81 24.2276 1587.59 25.7684 1579.72 30.3906C1577.61 31.5462 1575.88 33.8572 1573.58 34.6276C1572.81 35.0128 1571.66 34.2425 1570.89 34.435C1566.67 35.398 1563.02 36.7461 1558.61 35.9758C1554.77 35.2054 1551.51 31.9314 1547.86 30.5832C1540.18 27.6944 1525.6 31.3536 1519.26 36.1684C1518.5 36.7462 1517.54 38.4795 1516.77 39.0573C1513.7 40.9832 1511.59 38.2869 1509.48 35.9758C1506.98 33.2795 1506.79 32.1239 1503.72 32.7017C1501.42 33.0869 1499.88 35.398 1497.39 35.9758C1490.48 37.9017 1483.37 38.2868 1477.04 42.3313C1473.2 44.6424 1472.82 46.3758 1467.83 45.4128C1464.25 43.6153 1460.73 41.882 1457.27 40.2128C1451.13 36.6178 1444.73 33.7289 1438.08 31.5462C1436.74 31.3536 1433.28 30.7758 1432.13 30.5832C1427.72 30.1981 1423.11 30.3906 1418.7 30.3906C1413.13 30.198 1411.6 28.2721 1407.95 24.4202C1398.54 14.598 1381.27 14.598 1368.6 15.9462C1366.11 16.3314 1363.81 17.1017 1361.5 15.9462C1357.66 14.2128 1354.79 10.9388 1352.1 8.04987C1348.45 4.39061 1346.53 3.42769 1341.74 5.54621C1338.28 7.27954 1335.21 6.89433 1330.99 7.47211C1327.72 7.8573 1323.31 7.47211 1320.05 7.47211C1308.92 7.27952 1297.98 7.27952 1286.85 8.82026C1283.97 9.20545 1276.87 11.9017 1274.37 9.39802C1272.83 7.85728 1273.79 6.70168 1271.49 5.73872C1268.8 4.96835 1261.7 5.3536 1259.21 6.12397C1255.37 7.47212 1251.53 12.6721 1247.12 9.78322C1243.47 7.08692 1244.81 2.07951 1239.82 0.538771C1234.45 -1.00197 1228.5 1.11659 1223.51 2.46474C1217.56 4.00548 1211.04 4.19805 1205.66 7.47212C1201.44 9.97583 1201.06 7.66469 1197.22 6.31655C1191.65 4.19803 1184.93 10.5536 1180.14 13.2499C1177.26 14.598 1172.08 18.6425 1168.62 19.0277C1166.7 19.4129 1164.4 18.4499 1162.29 18.2573C1158.7 17.6153 1155.12 16.9733 1151.54 16.3313C1150.13 16.0745 1148.79 15.882 1147.51 15.7536C1145.85 15.4968 1144.76 14.6622 1144.25 13.2499C1139.26 11.7092 1133.69 16.9091 1129.85 19.6054C1127.74 21.1462 1126.59 22.6869 1123.9 23.0721C1120.83 23.6499 1116.8 23.2647 1113.92 22.8795C1107.97 21.9166 1103.75 18.2573 1097.99 16.524C1093.77 15.1758 1088.01 15.7535 1083.79 16.3313C1078.8 16.7165 1074.96 17.8722 1070.74 19.9907C1068.24 21.1462 1067.09 21.724 1064.6 21.9166C1057.88 22.1092 1052.12 21.3388 1046.17 18.8351C1041.57 16.9092 1034.66 15.3684 1030.05 16.7166C1021.99 19.2203 1015.27 24.6129 1007.98 28.2721C1003.37 30.7758 997.617 27.6944 993.011 27.3092C988.213 27.1166 983.607 25.961 979 25.961C971.899 25.961 965.758 26.7314 959.04 23.8425C953.091 21.3388 948.868 21.9166 944.262 17.6795C940.424 14.0203 934.09 15.1759 928.908 15.7536C918.737 16.7166 910.868 21.9166 900.504 21.9166C896.282 21.9166 892.059 20.1832 887.837 20.1832C879.968 20.3758 872.099 23.8425 865.382 27.6944C862.503 29.4277 859.624 32.124 856.745 33.2796C854.442 34.05 850.988 34.4351 848.685 34.6277C846.765 34.8203 843.887 35.0129 841.967 34.6277C836.402 33.6647 839.472 31.9314 831.987 34.8203C831.028 35.2055 817.593 44.0648 814.906 43.8722C812.219 43.6796 812.411 42.3314 809.916 40.9833C807.997 39.8277 806.653 40.2129 804.734 40.2129C798.401 40.4055 792.451 40.4055 786.31 41.7537C781.895 42.7166 778.441 43.1018 774.026 43.1018C767.885 43.1018 762.703 43.1018 756.945 45.2203C750.42 47.724 746.581 52.924 741.208 56.9684C738.329 59.2796 735.258 60.2426 731.803 61.3981C727.389 62.7463 723.743 64.8647 719.136 64.6721C717.601 64.4795 716.641 64.4796 715.298 64.287C713.763 63.5166 712.099 63.1314 710.308 63.1314C708.389 64.1586 706.406 65.1216 704.358 66.0203C702.439 66.9833 680.944 79.1165 684.782 68.3314C677.105 70.0647 671.731 76.2277 664.438 78.5388C660.792 79.6944 655.034 71.9907 623.943 82.9685C622.663 83.482 621.575 83.0968 620.68 81.8129C618.185 80.8499 618.761 80.2722 615.498 80.2722C611.276 80.1438 607.117 80.2722 603.023 80.6574C600.336 80.7858 597.969 81.5561 595.922 82.9685C593.363 83.3536 590.868 83.0327 588.437 82.0055C581.911 79.3092 578.841 79.3092 572.891 75.65C567.517 72.3759 557.153 76.9981 550.82 76.8055C542.567 76.2277 531.819 72.1833 524.526 75.65C513.011 81.0426 508.213 81.4278 496.122 85.2796C492.667 86.4352 486.334 87.7833 483.647 84.5092C480.576 80.6574 481.727 79.1166 476.162 78.924C474.051 78.7314 472.707 78.924 470.788 79.5018C468.101 81.2993 465.286 82.9685 462.343 84.5092C455.434 87.7833 451.595 84.124 444.302 87.0129C438.737 88.9388 425.494 94.1388 420.696 90.6721C416.665 87.9758 415.13 84.7018 409.948 83.3537C403.615 81.8129 397.089 84.3166 391.332 86.6277C383.655 89.9018 375.786 88.9389 367.533 88.9389C356.401 88.9389 346.422 84.3166 335.29 85.4722C329.724 86.05 322.431 90.4796 316.865 91.4425C311.747 92.3413 306.693 92.9833 301.703 93.3684C300.296 93.24 299.017 92.7265 297.865 91.8277C293.131 90.0302 288.141 89.4524 282.895 90.0944C273.491 90.0944 262.935 89.1314 253.723 92.2129C251.803 92.7907 250.46 93.3684 248.349 93.3684C242.207 93.3684 237.409 88.9388 231.843 87.5907C229.156 86.8203 226.278 87.5908 223.591 87.3982C217.065 87.3982 209.004 91.4426 204.974 89.9018C193.842 85.6648 187.509 90.6722 175.802 92.7907C171.771 92.4055 171.579 96.2574 164.862 94.1389C165.438 92.0204 161.983 89.1315 161.024 87.3982C158.337 82.1982 156.418 86.2426 150.66 81.4278C147.973 79.1167 129.932 82.0056 126.094 81.0426C116.114 78.3463 118.225 75.0722 108.437 76.4203C103.831 77.1907 100.568 72.9537 95.9617 73.3389C93.2748 73.5315 91.1637 73.9166 88.6687 74.3018C79.2645 76.0351 79.8402 77.7685 66.0217 74.687C64.2944 74.3018 53.1629 75.2648 51.2437 74.687C47.981 74.1092 41.0718 78.1537 38.5768 76.4203C32.4352 72.3759 30.324 74.1092 25.334 77.3833C22.4552 79.3092 22.0714 78.3463 19.3844 80.4648C15.9298 83.1611 13.8186 83.3537 9.40437 83.1611C6.52553 83.1611 3.07081 82.7759 3.59e-05 82.9685L3.99679e-05 129.5Z" fill="#E1E1E1"/>
</svg>
